<?xml version="1.0" encoding="utf-8"?>
<svg version="1.1" xmlns:xlink="http://www.w3.org/1999/xlink" width="30px" height="35px" xmlns="http://www.w3.org/2000/svg">
  <g transform="matrix(1 0 0 1 -411 -569 )">
    <path d="M 8.75 0  L 21.25 0  C 23.6588541666667 0  25.7194010416667 0.608723958333335  27.431640625 1.826171875  C 29.1438802083333 3.04361979166667  30 4.51822916666667  30 6.25  L 30 23.75  C 30 25.4427083333333  29.1829427083333 26.8880208333333  27.548828125 28.0859375  C 25.9147135416667 29.2838541666667  23.92578125 29.9153645833333  21.58203125 29.98046875  L 25.7421875 33.92578125  C 25.9505208333333 34.12109375  26.0026041666667 34.3489583333333  25.8984375 34.609375  C 25.7942708333333 34.8697916666667  25.5989583333333 35  25.3125 35  L 4.6875 35  C 4.40104166666667 35  4.20572916666667 34.8697916666667  4.1015625 34.609375  C 3.99739583333333 34.3489583333333  4.04947916666667 34.12109375  4.2578125 33.92578125  L 8.41796875 29.98046875  C 6.07421875 29.9153645833333  4.08528645833333 29.2838541666667  2.451171875 28.0859375  C 0.817057291666667 26.8880208333333  0 25.4427083333333  0 23.75  L 0 6.25  C 0 4.51822916666667  0.856119791666667 3.04361979166667  2.568359375 1.826171875  C 4.28059895833333 0.608723958333335  6.34114583333333 0  8.75 0  Z M 3.41796875 24.70703125  C 4.02994791666667 25.3190104166667  4.765625 25.625  5.625 25.625  C 6.484375 25.625  7.22005208333333 25.3190104166667  7.83203125 24.70703125  C 8.44401041666667 24.0950520833333  8.75 23.359375  8.75 22.5  C 8.75 21.640625  8.44401041666667 20.9049479166667  7.83203125 20.29296875  C 7.22005208333333 19.6809895833333  6.484375 19.375  5.625 19.375  C 4.765625 19.375  4.02994791666667 19.6809895833333  3.41796875 20.29296875  C 2.80598958333333 20.9049479166667  2.5 21.640625  2.5 22.5  C 2.5 23.359375  2.80598958333333 24.0950520833333  3.41796875 24.70703125  Z M 3.125 15  L 13.75 15  L 13.75 5  L 3.125 5  L 3.125 15  Z M 22.16796875 24.70703125  C 22.7799479166667 25.3190104166667  23.515625 25.625  24.375 25.625  C 25.234375 25.625  25.9700520833333 25.3190104166667  26.58203125 24.70703125  C 27.1940104166667 24.0950520833333  27.5 23.359375  27.5 22.5  C 27.5 21.640625  27.1940104166667 20.9049479166667  26.58203125 20.29296875  C 25.9700520833333 19.6809895833333  25.234375 19.375  24.375 19.375  C 23.515625 19.375  22.7799479166667 19.6809895833333  22.16796875 20.29296875  C 21.5559895833333 20.9049479166667  21.25 21.640625  21.25 22.5  C 21.25 23.359375  21.5559895833333 24.0950520833333  22.16796875 24.70703125  Z M 16 15  L 27.5 15  L 27.5 5  L 16 5  L 16 15  Z " fill-rule="nonzero" fill="#ffffff" stroke="none" transform="matrix(1 0 0 1 411 569 )" />
  </g>
</svg>