<?xml version="1.0" encoding="utf-8"?>
<svg version="1.1" xmlns:xlink="http://www.w3.org/1999/xlink" width="25px" height="32px" xmlns="http://www.w3.org/2000/svg">
  <g transform="matrix(1 0 0 1 -333 -433 )">
    <path d="M 6.64950284090909 23.0267857142857  C 6.76195549242424 23.1398809523809  6.81818181818182 23.2738095238095  6.81818181818182 23.4285714285714  L 6.81818181818182 24.5714285714286  C 6.81818181818182 24.7261904761905  6.76195549242424 24.8601190476191  6.64950284090909 24.9732142857143  C 6.53705018939394 25.0863095238095  6.40388257575758 25.1428571428571  6.25 25.1428571428571  L 5.11363636363636 25.1428571428571  C 4.95975378787879 25.1428571428571  4.82658617424242 25.0863095238095  4.71413352272727 24.9732142857143  C 4.60168087121212 24.8601190476191  4.54545454545455 24.7261904761905  4.54545454545455 24.5714285714286  L 4.54545454545455 23.4285714285714  C 4.54545454545455 23.2738095238095  4.60168087121212 23.1398809523809  4.71413352272727 23.0267857142857  C 4.82658617424242 22.9136904761905  4.95975378787879 22.8571428571429  5.11363636363636 22.8571428571429  L 6.25 22.8571428571429  C 6.40388257575758 22.8571428571429  6.53705018939394 22.9136904761905  6.64950284090909 23.0267857142857  Z M 6.64950284090909 18.4553571428571  C 6.76195549242424 18.5684523809524  6.81818181818182 18.7023809523809  6.81818181818182 18.8571428571429  L 6.81818181818182 20  C 6.81818181818182 20.1547619047619  6.76195549242424 20.2886904761905  6.64950284090909 20.4017857142857  C 6.53705018939394 20.514880952381  6.40388257575758 20.5714285714286  6.25 20.5714285714286  L 5.11363636363636 20.5714285714286  C 4.95975378787879 20.5714285714286  4.82658617424242 20.514880952381  4.71413352272727 20.4017857142857  C 4.60168087121212 20.2886904761905  4.54545454545455 20.1547619047619  4.54545454545455 20  L 4.54545454545455 18.8571428571429  C 4.54545454545455 18.7023809523809  4.60168087121212 18.5684523809524  4.71413352272727 18.4553571428571  C 4.82658617424242 18.3422619047619  4.95975378787879 18.2857142857143  5.11363636363636 18.2857142857143  L 6.25 18.2857142857143  C 6.40388257575758 18.2857142857143  6.53705018939394 18.3422619047619  6.64950284090909 18.4553571428571  Z M 11.1949573863636 18.4553571428571  C 11.3074100378788 18.5684523809524  11.3636363636364 18.7023809523809  11.3636363636364 18.8571428571429  L 11.3636363636364 20  C 11.3636363636364 20.1547619047619  11.3074100378788 20.2886904761905  11.1949573863636 20.4017857142857  C 11.0825047348485 20.514880952381  10.9493371212121 20.5714285714286  10.7954545454545 20.5714285714286  L 9.65909090909091 20.5714285714286  C 9.50520833333333 20.5714285714286  9.37204071969697 20.514880952381  9.25958806818182 20.4017857142857  C 9.14713541666667 20.2886904761905  9.09090909090909 20.1547619047619  9.09090909090909 20  L 9.09090909090909 18.8571428571429  C 9.09090909090909 18.7023809523809  9.14713541666667 18.5684523809524  9.25958806818182 18.4553571428571  C 9.37204071969697 18.3422619047619  9.50520833333333 18.2857142857143  9.65909090909091 18.2857142857143  L 10.7954545454545 18.2857142857143  C 10.9493371212121 18.2857142857143  11.0825047348485 18.3422619047619  11.1949573863636 18.4553571428571  Z M 6.64950284090909 13.8839285714286  C 6.76195549242424 13.9970238095238  6.81818181818182 14.1309523809524  6.81818181818182 14.2857142857143  L 6.81818181818182 15.4285714285714  C 6.81818181818182 15.5833333333333  6.76195549242424 15.7172619047619  6.64950284090909 15.8303571428571  C 6.53705018939394 15.9434523809524  6.40388257575758 16  6.25 16  L 5.11363636363636 16  C 4.95975378787879 16  4.82658617424242 15.9434523809524  4.71413352272727 15.8303571428571  C 4.60168087121212 15.7172619047619  4.54545454545455 15.5833333333333  4.54545454545455 15.4285714285714  L 4.54545454545455 14.2857142857143  C 4.54545454545455 14.1309523809524  4.60168087121212 13.9970238095238  4.71413352272727 13.8839285714286  C 4.82658617424242 13.7708333333333  4.95975378787879 13.7142857142857  5.11363636363636 13.7142857142857  L 6.25 13.7142857142857  C 6.40388257575758 13.7142857142857  6.53705018939394 13.7708333333333  6.64950284090909 13.8839285714286  Z M 20.2858664772727 23.0267857142857  C 20.3983191287879 23.1398809523809  20.4545454545455 23.2738095238095  20.4545454545455 23.4285714285714  L 20.4545454545455 24.5714285714286  C 20.4545454545455 24.7261904761905  20.3983191287879 24.8601190476191  20.2858664772727 24.9732142857143  C 20.1734138257576 25.0863095238095  20.0402462121212 25.1428571428571  19.8863636363636 25.1428571428571  L 18.75 25.1428571428571  C 18.5961174242424 25.1428571428571  18.4629498106061 25.0863095238095  18.3504971590909 24.9732142857143  C 18.2380445075758 24.8601190476191  18.1818181818182 24.7261904761905  18.1818181818182 24.5714285714286  L 18.1818181818182 23.4285714285714  C 18.1818181818182 23.2738095238095  18.2380445075758 23.1398809523809  18.3504971590909 23.0267857142857  C 18.4629498106061 22.9136904761905  18.5961174242424 22.8571428571429  18.75 22.8571428571429  L 19.8863636363636 22.8571428571429  C 20.0402462121212 22.8571428571429  20.1734138257576 22.9136904761905  20.2858664772727 23.0267857142857  Z M 15.7404119318182 18.4553571428571  C 15.8528645833333 18.5684523809524  15.9090909090909 18.7023809523809  15.9090909090909 18.8571428571429  L 15.9090909090909 20  C 15.9090909090909 20.1547619047619  15.8528645833333 20.2886904761905  15.7404119318182 20.4017857142857  C 15.627959280303 20.514880952381  15.4947916666667 20.5714285714286  15.3409090909091 20.5714285714286  L 14.2045454545455 20.5714285714286  C 14.0506628787879 20.5714285714286  13.9174952651515 20.514880952381  13.8050426136364 20.4017857142857  C 13.6925899621212 20.2886904761905  13.6363636363636 20.1547619047619  13.6363636363636 20  L 13.6363636363636 18.8571428571429  C 13.6363636363636 18.7023809523809  13.6925899621212 18.5684523809524  13.8050426136364 18.4553571428571  C 13.9174952651515 18.3422619047619  14.0506628787879 18.2857142857143  14.2045454545455 18.2857142857143  L 15.3409090909091 18.2857142857143  C 15.4947916666667 18.2857142857143  15.627959280303 18.3422619047619  15.7404119318182 18.4553571428571  Z M 11.1949573863636 13.8839285714286  C 11.3074100378788 13.9970238095238  11.3636363636364 14.1309523809524  11.3636363636364 14.2857142857143  L 11.3636363636364 15.4285714285714  C 11.3636363636364 15.5833333333333  11.3074100378788 15.7172619047619  11.1949573863636 15.8303571428571  C 11.0825047348485 15.9434523809524  10.9493371212121 16  10.7954545454545 16  L 9.65909090909091 16  C 9.50520833333333 16  9.37204071969697 15.9434523809524  9.25958806818182 15.8303571428571  C 9.14713541666667 15.7172619047619  9.09090909090909 15.5833333333333  9.09090909090909 15.4285714285714  L 9.09090909090909 14.2857142857143  C 9.09090909090909 14.1309523809524  9.14713541666667 13.9970238095238  9.25958806818182 13.8839285714286  C 9.37204071969697 13.7708333333333  9.50520833333333 13.7142857142857  9.65909090909091 13.7142857142857  L 10.7954545454545 13.7142857142857  C 10.9493371212121 13.7142857142857  11.0825047348485 13.7708333333333  11.1949573863636 13.8839285714286  Z M 20.2858664772727 18.4553571428571  C 20.3983191287879 18.5684523809524  20.4545454545455 18.7023809523809  20.4545454545455 18.8571428571429  L 20.4545454545455 20  C 20.4545454545455 20.1547619047619  20.3983191287879 20.2886904761905  20.2858664772727 20.4017857142857  C 20.1734138257576 20.514880952381  20.0402462121212 20.5714285714286  19.8863636363636 20.5714285714286  L 18.75 20.5714285714286  C 18.5961174242424 20.5714285714286  18.4629498106061 20.514880952381  18.3504971590909 20.4017857142857  C 18.2380445075758 20.2886904761905  18.1818181818182 20.1547619047619  18.1818181818182 20  L 18.1818181818182 18.8571428571429  C 18.1818181818182 18.7023809523809  18.2380445075758 18.5684523809524  18.3504971590909 18.4553571428571  C 18.4629498106061 18.3422619047619  18.5961174242424 18.2857142857143  18.75 18.2857142857143  L 19.8863636363636 18.2857142857143  C 20.0402462121212 18.2857142857143  20.1734138257576 18.3422619047619  20.2858664772727 18.4553571428571  Z M 15.7404119318182 13.8839285714286  C 15.8528645833333 13.9970238095238  15.9090909090909 14.1309523809524  15.9090909090909 14.2857142857143  L 15.9090909090909 15.4285714285714  C 15.9090909090909 15.5833333333333  15.8528645833333 15.7172619047619  15.7404119318182 15.8303571428571  C 15.627959280303 15.9434523809524  15.4947916666667 16  15.3409090909091 16  L 14.2045454545455 16  C 14.0506628787879 16  13.9174952651515 15.9434523809524  13.8050426136364 15.8303571428571  C 13.6925899621212 15.7172619047619  13.6363636363636 15.5833333333333  13.6363636363636 15.4285714285714  L 13.6363636363636 14.2857142857143  C 13.6363636363636 14.1309523809524  13.6925899621212 13.9970238095238  13.8050426136364 13.8839285714286  C 13.9174952651515 13.7708333333333  14.0506628787879 13.7142857142857  14.2045454545455 13.7142857142857  L 15.3409090909091 13.7142857142857  C 15.4947916666667 13.7142857142857  15.627959280303 13.7708333333333  15.7404119318182 13.8839285714286  Z M 20.2858664772727 13.8839285714286  C 20.3983191287879 13.9970238095238  20.4545454545455 14.1309523809524  20.4545454545455 14.2857142857143  L 20.4545454545455 15.4285714285714  C 20.4545454545455 15.5833333333333  20.3983191287879 15.7172619047619  20.2858664772727 15.8303571428571  C 20.1734138257576 15.9434523809524  20.0402462121212 16  19.8863636363636 16  L 18.75 16  C 18.5961174242424 16  18.4629498106061 15.9434523809524  18.3504971590909 15.8303571428571  C 18.2380445075758 15.7172619047619  18.1818181818182 15.5833333333333  18.1818181818182 15.4285714285714  L 18.1818181818182 14.2857142857143  C 18.1818181818182 14.1309523809524  18.2380445075758 13.9970238095238  18.3504971590909 13.8839285714286  C 18.4629498106061 13.7708333333333  18.5961174242424 13.7142857142857  18.75 13.7142857142857  L 19.8863636363636 13.7142857142857  C 20.0402462121212 13.7142857142857  20.1734138257576 13.7708333333333  20.2858664772727 13.8839285714286  Z M 15.9090909090909 25.7142857142857  L 15.9090909090909 29.7142857142857  L 22.7272727272727 29.7142857142857  L 22.7272727272727 9.14285714285714  L 18.1818181818182 9.14285714285714  L 18.1818181818182 9.71428571428572  C 18.1818181818182 10.1904761904762  18.0160984848485 10.5952380952381  17.6846590909091 10.9285714285714  C 17.3532196969697 11.2619047619048  16.9507575757576 11.4285714285714  16.4772727272727 11.4285714285714  L 8.52272727272727 11.4285714285714  C 8.04924242424243 11.4285714285714  7.6467803030303 11.2619047619048  7.31534090909091 10.9285714285714  C 6.98390151515152 10.5952380952381  6.81818181818182 10.1904761904762  6.81818181818182 9.71428571428572  L 6.81818181818182 9.14285714285714  L 2.27272727272727 9.14285714285714  L 2.27272727272727 29.7142857142857  L 9.09090909090909 29.7142857142857  L 9.09090909090909 25.7142857142857  C 9.09090909090909 25.5595238095238  9.14713541666667 25.4255952380952  9.25958806818182 25.3125  C 9.37204071969697 25.1994047619048  9.50520833333333 25.1428571428571  9.65909090909091 25.1428571428571  L 15.3409090909091 25.1428571428571  C 15.4947916666667 25.1428571428571  15.627959280303 25.1994047619048  15.7404119318182 25.3125  C 15.8528645833333 25.4255952380952  15.9090909090909 25.5595238095238  15.9090909090909 25.7142857142857  Z M 15.7404119318182 8.97321428571428  C 15.8528645833333 8.86011904761904  15.9090909090909 8.72619047619047  15.9090909090909 8.57142857142857  L 15.9090909090909 2.85714285714286  C 15.9090909090909 2.70238095238095  15.8528645833333 2.56845238095238  15.7404119318182 2.45535714285714  C 15.627959280303 2.3422619047619  15.4947916666667 2.28571428571428  15.3409090909091 2.28571428571428  L 14.2045454545455 2.28571428571428  C 14.0506628787879 2.28571428571428  13.9174952651515 2.3422619047619  13.8050426136364 2.45535714285714  C 13.6925899621212 2.56845238095238  13.6363636363636 2.70238095238095  13.6363636363636 2.85714285714286  L 13.6363636363636 4.57142857142857  L 11.3636363636364 4.57142857142857  L 11.3636363636364 2.85714285714286  C 11.3636363636364 2.70238095238095  11.3074100378788 2.56845238095238  11.1949573863636 2.45535714285714  C 11.0825047348485 2.3422619047619  10.9493371212121 2.28571428571428  10.7954545454545 2.28571428571428  L 9.65909090909091 2.28571428571428  C 9.50520833333333 2.28571428571428  9.37204071969697 2.3422619047619  9.25958806818182 2.45535714285714  C 9.14713541666667 2.56845238095238  9.09090909090909 2.70238095238095  9.09090909090909 2.85714285714286  L 9.09090909090909 8.57142857142857  C 9.09090909090909 8.72619047619047  9.14713541666667 8.86011904761904  9.25958806818182 8.97321428571428  C 9.37204071969697 9.08630952380952  9.50520833333333 9.14285714285714  9.65909090909091 9.14285714285714  L 10.7954545454545 9.14285714285714  C 10.9493371212121 9.14285714285714  11.0825047348485 9.08630952380952  11.1949573863636 8.97321428571428  C 11.3074100378788 8.86011904761904  11.3636363636364 8.72619047619047  11.3636363636364 8.57142857142857  L 11.3636363636364 6.85714285714286  L 13.6363636363636 6.85714285714286  L 13.6363636363636 8.57142857142857  C 13.6363636363636 8.72619047619047  13.6925899621212 8.86011904761904  13.8050426136364 8.97321428571428  C 13.9174952651515 9.08630952380952  14.0506628787879 9.14285714285714  14.2045454545455 9.14285714285714  L 15.3409090909091 9.14285714285714  C 15.4947916666667 9.14285714285714  15.627959280303 9.08630952380952  15.7404119318182 8.97321428571428  Z M 24.6626420454545 7.19642857142857  C 24.8875473484849 7.42261904761904  25 7.69047619047619  25 8  L 25 30.8571428571429  C 25 31.1666666666667  24.8875473484849 31.4345238095238  24.6626420454545 31.6607142857143  C 24.4377367424242 31.8869047619048  24.1714015151515 32  23.8636363636364 32  L 1.13636363636364 32  C 0.828598484848485 32  0.562263257575758 31.8869047619048  0.337357954545455 31.6607142857143  C 0.112452651515152 31.4345238095238  0 31.1666666666667  0 30.8571428571429  L 0 8  C 0 7.69047619047619  0.112452651515152 7.42261904761904  0.337357954545455 7.19642857142857  C 0.562263257575758 6.97023809523809  0.828598484848485 6.85714285714286  1.13636363636364 6.85714285714286  L 6.81818181818182 6.85714285714286  L 6.81818181818182 1.71428571428572  C 6.81818181818182 1.23809523809524  6.98390151515152 0.833333333333332  7.31534090909091 0.5  C 7.6467803030303 0.166666666666668  8.04924242424243 0  8.52272727272727 0  L 16.4772727272727 0  C 16.9507575757576 0  17.3532196969697 0.166666666666668  17.6846590909091 0.5  C 18.0160984848485 0.833333333333332  18.1818181818182 1.23809523809524  18.1818181818182 1.71428571428572  L 18.1818181818182 6.85714285714286  L 23.8636363636364 6.85714285714286  C 24.1714015151515 6.85714285714286  24.4377367424242 6.97023809523809  24.6626420454545 7.19642857142857  Z " fill-rule="nonzero" fill="#ffffff" stroke="none" transform="matrix(1 0 0 1 333 433 )" />
  </g>
</svg>