<?xml version="1.0" encoding="utf-8"?>
<svg version="1.1" xmlns:xlink="http://www.w3.org/1999/xlink" width="38px" height="32px" xmlns="http://www.w3.org/2000/svg">
  <g transform="matrix(1 0 0 1 -476 -396 )">
    <path d="M 13.7475961538462 27.0454545454545  C 14.3261217948718 27.6212121212121  14.6153846153846 28.3030303030303  14.6153846153846 29.0909090909091  C 14.6153846153846 29.8787878787879  14.3261217948718 30.5606060606061  13.7475961538462 31.1363636363636  C 13.1690705128205 31.7121212121212  12.4839743589744 32  11.6923076923077 32  C 10.900641025641 32  10.2155448717949 31.7121212121212  9.63701923076923 31.1363636363636  C 9.05849358974359 30.5606060606061  8.76923076923077 29.8787878787879  8.76923076923077 29.0909090909091  C 8.76923076923077 28.3030303030303  9.05849358974359 27.6212121212121  9.63701923076923 27.0454545454545  C 10.2155448717949 26.469696969697  10.900641025641 26.1818181818182  11.6923076923077 26.1818181818182  C 12.4839743589744 26.1818181818182  13.1690705128205 26.469696969697  13.7475961538462 27.0454545454545  Z M 34.2091346153846 27.0454545454545  C 34.7876602564103 27.6212121212121  35.0769230769231 28.3030303030303  35.0769230769231 29.0909090909091  C 35.0769230769231 29.8787878787879  34.7876602564103 30.5606060606061  34.2091346153846 31.1363636363636  C 33.630608974359 31.7121212121212  32.9455128205128 32  32.1538461538462 32  C 31.3621794871795 32  30.6770833333333 31.7121212121212  30.0985576923077 31.1363636363636  C 29.5200320512821 30.5606060606061  29.2307692307692 29.8787878787879  29.2307692307692 29.0909090909091  C 29.2307692307692 28.3030303030303  29.5200320512821 27.6212121212121  30.0985576923077 27.0454545454545  C 30.6770833333333 26.469696969697  31.3621794871795 26.1818181818182  32.1538461538462 26.1818181818182  C 32.9455128205128 26.1818181818182  33.630608974359 26.469696969697  34.2091346153846 27.0454545454545  Z M 37.5661057692308 3.34090909090909  C 37.8553685897436 3.62878787878788  38 3.96969696969697  38 4.36363636363636  L 38 16  C 38 16.3636363636364  37.8743990384615 16.6856060606061  37.6231971153846 16.9659090909091  C 37.3719951923077 17.2462121212121  37.0637019230769 17.4090909090909  36.6983173076923 17.4545454545455  L 12.8569711538462 20.2272727272727  C 13.0548878205128 21.1363636363636  13.1538461538462 21.6666666666667  13.1538461538462 21.8181818181818  C 13.1538461538462 22.0606060606061  12.9711538461538 22.5454545454545  12.6057692307692 23  L 33.6153846153846 23  C 34.0112179487179 23.2727272727273  34.353766025641 23.4166666666667  34.6430288461538 23.7045454545455  C 34.9322916666667 23.9924242424242  35.0769230769231 24.3333333333333  35.0769230769231 24.7272727272727  C 35.0769230769231 25.1212121212121  34.9322916666667 25.4621212121212  34.6430288461538 25.75  C 34.353766025641 26.0378787878788  34.0112179487179 26.1818181818182  33.6153846153846 26  L 10.2307692307692 26  C 9.8349358974359 26.1818181818182  9.49238782051282 26.0378787878788  9.203125 25.75  C 8.91386217948718 25.4621212121212  8.76923076923077 25.1212121212121  8.76923076923077 24.7272727272727  C 8.76923076923077 24.5606060606061  8.8301282051282 24.3219696969697  8.95192307692308 24.0113636363636  C 9.07371794871795 23.7007575757576  9.19551282051282 23.4280303030303  9.31730769230769 23.1931818181818  C 9.43910256410257 22.9583333333333  9.60276442307692 22.655303030303  9.80829326923077 22.2840909090909  C 10.0138221153846 21.9128787878788  10.1318108974359 21.6893939393939  10.1622596153846 21.6136363636364  L 6.12019230769231 2.90909090909091  L 1.46153846153846 2.90909090909091  C 1.06570512820513 2.90909090909091  0.723157051282051 2.76515151515151  0.433894230769231 2.47727272727273  C 0.14463141025641 2.18939393939394  0 1.84848484848485  0 1.45454545454545  C 0 1.06060606060606  0.14463141025641 0.719696969696965  0.433894230769231 0.431818181818183  C 0.723157051282051 0.143939393939391  1.06570512820513 0  1.46153846153846 0  L 7.30769230769231 0  C 7.55128205128205 0  7.76822916666667 0.0492424242424221  7.95853365384615 0.147727272727273  C 8.14883814102564 0.246212121212121  8.29727564102564 0.363636363636363  8.40384615384615 0.5  C 8.51041666666667 0.636363636363637  8.609375 0.821969696969692  8.70072115384615 1.05681818181818  C 8.79206730769231 1.29166666666666  8.85296474358974 1.48863636363636  8.88341346153846 1.64772727272727  C 8.91386217948718 1.80681818181818  8.95572916666667 2.03030303030303  9.00901442307692 2.31818181818182  C 9.06229967948718 2.6060606060606  9.09655448717949 2.8030303030303  9.11177884615385 3  L 36.5384615384615 3  C 36.9342948717949 2.90909090909091  37.2768429487179 3.0530303030303  37.5661057692308 3.34090909090909  Z " fill-rule="nonzero" fill="#ffffff" stroke="none" transform="matrix(1 0 0 1 476 396 )" />
  </g>
</svg>